<?xml version="1.0" encoding="UTF-8"?>
<svg xmlns="http://www.w3.org/2000/svg" version="1.1" viewBox="0 0 1920 392.18">
  <defs>
    <style>
      .cls-1 {
        fill: #f9f8eb;
;
      }
    </style>
  </defs>
  <!-- Generator: Adobe Illustrator 28.6.0, SVG Export Plug-In . SVG Version: 1.2.0 Build 709)  -->
  <g>
    <g id="Camada_1">
      <g>
        <path class="cls-1" d="M564.74,248.48c17.13-35.5,33.76-69.91,50.34-104.34,4.82-10,9.66-19.98,14.18-30.11,1.59-3.56,3.63-4.74,7.51-4.71,14.26.14,14.19-.01,14.19,14.5.02,48.62.02,97.24.26,145.87.02,5.18-.92,7.12-6.69,6.96-13.57-.38-13.82-.02-13.87-13.39-.13-34.4-.04-68.8-.04-103.21,0-.72,0-1.45,0-2.17-.38-.13-.75-.26-1.13-.39-5.11,10.36-10.32,20.68-15.3,31.1-13.37,27.99-26.68,56.01-39.9,84.07-1.33,2.83-3.03,3.86-6.13,3.93-11.93.27-11.82.32-16.86-10.3-16.29-34.32-32.65-68.61-49.06-102.86-.69-1.44-.68-4.39-3.26-3.62-1.81.54-.93,2.94-.93,4.46-.09,35.23-.2,70.46,0,105.69.03,4.86-.74,6.68-6.16,6.68-14.4,0-14.4.32-14.4-13.8,0-47.8,0-95.6.03-143.4,0-10.07.09-9.79,10.27-10.31,6.79-.34,10.36,1.84,13.46,8.46,19.1,40.74,38.86,81.16,58.44,121.67,1.39,2.88,3.07,5.63,5.05,9.22Z"/>
        <path class="cls-1" d="M1690.19,107.03c41.15-.64,85.72,29.52,86.29,86.01.53,52.46-42.33,85.09-83.57,85.66-47.62.66-85.84-36.34-86.26-85.32-.47-55.29,45.6-86.53,83.54-86.35ZM1627.11,193.52c-.21,4.05.72,9.12,1.63,14.18,6.79,37.83,48.65,61.17,80.72,49.56,25.61-9.28,41.81-26.32,45.65-53.78,4.8-34.24-12.94-63.04-42.77-73.8-41.77-15.07-85.73,17.64-85.24,63.84Z"/>
        <path class="cls-1" d="M264.9,289.39c0,20.66-.11,46.42.11,72.17.04,4.41-1.27,5.47-5.5,5.44-11.01-.08-10.92.12-10.92-11.02,0-46.56-.23-93.12-.05-139.68.06-15.89-4.82-28.83-18.03-38.48-6.36-4.64-13.34-6.11-20.74-6.96-11.54-1.32-22.99-1.2-34.4,1.44-14.75,3.41-30.33,17.91-30.24,36.75.17,33.58-.26,67.16.21,100.73.27,19.55,16.8,35.85,36.3,36.77,3.97.19,5.23,1.43,4.46,5.11-.04.2-.03.41-.03.62-.3,11.44-2.05,12.74-13.37,9.91-25.22-6.3-43.18-27.96-43.53-53.98-.45-33.57-.31-67.16-.03-100.73.19-23.08,12.97-38.26,32.42-48.64,8.3-4.43,17.26-6.35,26.76-6.15,14.15.3,28.44-1.34,41.86,5.24,20.08,9.84,32.18,25.41,33.84,47.91,1.93,26.12.28,52.31.88,83.55Z"/>
        <path class="cls-1" d="M1058.84,170c0-18.33.18-36.66-.12-54.99-.08-4.77,1.37-5.79,5.88-5.74,13.64.15,13.67-.05,13.71,13.75.08,29.46.02,58.91.27,88.37.07,7.78.41,15.59,2.62,23.21,6.35,21.88,30.42,29.82,47.91,25.16,20.29-5.4,30.21-18.54,30.61-42.71.44-27.18.14-54.38.13-81.57,0-6.8.06-13.6-.25-20.38-.19-4.07.75-5.84,5.37-5.86,14.33-.06,14.57-.26,14.46,13.96-.25,34.18,1.78,68.43-.94,102.53-3.15,39.46-41.19,62.99-78.9,51.07-24.13-7.63-40.05-31.11-40.1-54.28-.04-17.51,0-35.01,0-52.52h-.63Z"/>
        <path class="cls-1" d="M1207.96,192.73c0-25.95,0-51.91,0-77.86,0-2.63-.64-5.56,3.69-5.48,22.01.41,44.04-1.13,66.04,1.76,25.9,3.4,44.45,26.37,43.29,55.05-1.15,28.4-21.68,49.03-50.24,49.82-12.35.34-24.73.26-37.08-.09-4.78-.14-5.87,1.49-5.82,5.97.2,16.48-.12,32.96.08,49.43.05,4.33-1.23,5.46-5.54,5.44-14.36-.04-14.35.15-14.33-14.2.02-11.74.02-23.48.03-35.22,0-11.54,0-23.07,0-34.61h-.13ZM1227.94,163.21c0,9.27.35,18.55-.13,27.79-.29,5.67,1.44,7.68,7.16,7.49,11.11-.38,22.24-.12,33.36-.31,3.26-.06,6.69-.23,9.74-1.24,15.32-5.05,25.37-20.59,23.53-35.91-2.4-19.96-13.67-31.68-32.36-32.63-11.91-.6-23.88-.05-35.83-.18-4.3-.05-5.66,1.74-5.54,5.96.26,9.67.08,19.35.07,29.03Z"/>
        <path class="cls-1" d="M1474.54,192.82c0-26.15-.02-52.3.03-78.45,0-2.28-.89-5.32,3.25-5.15,22.59.9,45.21-1.2,67.82,2.25,20.72,3.15,38.2,20.84,40.85,43.51,1.99,16.96-.94,32.82-13.55,45.68-10.06,10.27-22.43,15.06-36.56,15.36-12.15.26-24.32.37-36.45-.12-5.3-.22-6.16,1.71-6.11,6.31.18,16.26-.16,32.53.08,48.8.07,4.68-1.36,5.82-5.92,5.76-13.5-.16-13.56.05-13.55-13.53.02-11.73.23-23.47.28-35.2.05-11.74.01-23.47.01-35.21-.06,0-.13,0-.19,0ZM1493.88,162.84h-.03c0,9.88.18,19.77-.08,29.65-.12,4.64,1.63,6.15,6.11,6.04,11.32-.26,22.65-.15,33.98-.27,16.91-.18,30.73-11.42,32.91-26.69,3.06-21.45-4.85-35.86-23.08-41.19-15.33-4.48-31.1-1.58-46.67-2.03-3.92-.12-3.08,3.2-3.1,5.46-.1,9.68-.04,19.35-.04,29.03Z"/>
        <path class="cls-1" d="M1395.38,107.12c22.75-.43,37.73,11.88,49.24,29.88,2.25,3.52,1.8,6.13-2.62,7.43-3.53,1.04-5.84,5.76-9.57,4.82-3.38-.85-3.88-5.46-5.89-8.25-11.01-15.29-30.63-20.72-47.79-13.23-16.95,7.39-19.88,29.7-5.59,41.79,6.97,5.89,15.6,8.22,23.75,11.53,10.09,4.1,20.54,7.34,29.87,13.17,9.1,5.69,16.43,13.03,21.05,22.81,7.09,15,3.33,32.4-8.46,44.91-22.6,23.98-68.32,24.1-89.15-.9-4.1-4.92-7.42-10.3-10.25-16.07-1.71-3.49-1.41-5.8,1.92-7.71.53-.31.95-.81,1.48-1.11,3.21-1.79,6.54-5.09,9.65-4.91,3.41.2,3.23,5.54,4.86,8.49,11.4,20.61,35.09,24.67,51.88,20.17,10.77-2.89,19.23-9.89,20.95-21.92,1.81-12.6-2.93-22.66-13.86-29.36-13.61-8.34-29.16-12.32-43.6-18.83-11.22-5.06-20.57-12.34-25.38-23.98-9.22-22.3.91-45.15,23.5-53.92,7.75-3.01,15.75-4.67,24.02-4.81Z"/>
        <path class="cls-1" d="M803.56,192.32c0-25.75.1-51.5-.08-77.25-.03-4.43.96-5.81,5.75-5.77,28.43.27,56.87.23,85.31-.02,4.62-.04,5.9,1.15,5.87,5.73-.1,12.92.1,12.93-12.84,12.95-19.58.03-39.15.15-58.73.02-4.03-.03-5.84.73-5.75,5.35.29,14.83.34,29.67-.02,44.49-.13,5.2,1.85,6.04,6.4,5.98,16.28-.22,32.56.09,48.83-.19,4.37-.08,5.11,1.38,4.97,5.3-.43,12.09-.28,12.09-12.6,12.11-14.22.03-28.44.19-42.65.03-3.6-.04-5.12.61-5.05,4.66.27,15.45.36,30.9.12,46.35-.07,4.74,1.56,5.9,6.03,5.87,22.46-.16,44.92.1,67.38-.14,4.93-.05,6.16,1.49,6.07,6.22-.24,12.46-.02,12.4-12.27,12.4-26.99-.01-53.99-.04-80.98.18-4.46.04-5.96-.95-5.91-5.76.27-26.16.13-52.32.13-78.49Z"/>
        <path class="cls-1" d="M679.62,192.98c0-25.96.09-51.91-.09-77.87-.03-4.35.7-5.83,5.65-5.78,28.43.27,56.87.14,85.31-.12,4.58-.04,5.88,1.18,5.83,5.81-.15,13.05.08,13.03-12.79,13.03-19.37-.01-38.74.11-58.11-.08-4.38-.04-6.2.91-6.1,5.78.29,14.21.28,28.43-.1,42.64-.15,5.73,1.24,7.74,7.42,7.53,15.85-.52,31.73-.06,47.59-.29,4-.06,5.23.87,5.09,5.09-.39,12.31-.18,12.31-12.26,12.32-14.22,0-28.44.22-42.65-.08-4.28-.09-5.2,1.33-5.15,5.23.18,14.01.04,28.02.07,42.02.02,9.66.06,9.67,10.04,9.68,20.81,0,41.63.13,62.44-.11,5.08-.06,7.24.75,6.82,6.67-.85,11.94-.45,11.94-12.68,11.95-26.38.01-52.76-.14-79.13.22-6.08.08-7.47-1.75-7.39-7.62.34-25.33.14-50.68.14-76.01h.04Z"/>
        <path class="cls-1" d="M97.33,244.67c0-16.48.22-32.96-.07-49.43-.24-14.06-10.58-23.74-24.64-23.7-4.74.01-9.48.01-14.22.1-14.56.27-24.46,9.97-24.6,24.53-.19,19.98-.12,39.96-.09,59.94.02,14.58,6.09,23.34,20.04,27.35,4.57,1.32,5.31,3.25,4.95,7.29-1.02,11.39-.91,11.4-11.47,8.19-16.44-4.99-28.4-18.63-29.4-35.88-1.41-24.47-1-49.01.18-73.49.58-12.07,7.48-21.45,17.53-27.7,18.5-11.5,38.2-11.12,57.2-2.03,15.47,7.4,21.26,21.85,21.4,38.34.27,32.13.05,64.27.2,96.4.02,3.95-1.16,5.82-5.18,5.59-.82-.05-1.64.11-2.47.16-8.99.53-8.96.53-8.95-8.7.02-15.66,0-31.31,0-46.97-.14,0-.29,0-.43,0Z"/>
        <path class="cls-1" d="M278.9,243.78c0-16.07-.15-32.14.04-48.2.26-22.82,18.35-41.03,41.16-41.53,8-.17,16.02-.81,23.92,1.56,18.33,5.49,29.1,17.67,30.41,36.74,1.65,24.04,2.32,48.22-.16,72.19-2.31,22.33-17.33,32.23-35.64,36.5-3.16.74-4.26-.35-4.39-3.75-.4-11.08-.54-11.07,9.49-15.58,9.25-4.16,14.45-10.97,14.83-21.44.8-21.83.46-43.67-.09-65.49-.35-13.96-10.48-23.06-24.5-23.1-4.12-.01-8.24.04-12.36-.06-15.85-.4-26.51,9.84-26.54,25.81-.05,32.75-.05,65.51.13,98.26.02,3.13-.42,4.3-3.76,4.55-12.49.95-12.48,1.07-12.47-11.35,0-15.04,0-30.08,0-45.11h-.09Z"/>
        <path class="cls-1" d="M140.34,78.95c-.79-28.58,22.51-57.56,58.78-58.35,32.07-.7,58.62,26.55,58.78,59.13.15,30.28-27.16,57.92-57.49,58.2-33.51.31-59.8-25.51-60.07-58.98ZM156.43,77.63c.09,24.14,19.8,44.27,43.25,44.15,21.67-.11,43.01-21.21,41.83-42.89-1.4-25.77-16.93-40.96-42.84-41.64-22.96-.6-42.33,18.43-42.24,40.38Z"/>
        <path class="cls-1" d="M1843.31,202.48c0-23.07-.11-46.14.1-69.21.04-4.39-1.21-5.48-5.51-5.34-11.94.4-23.9.18-35.84.44-3.64.08-5.04-.9-5.15-4.8-.4-14.12-.54-14.16,13.78-14.17,30.7-.03,61.41.12,92.11-.16,5.57-.05,6.9,1.66,6.71,6.98-.43,11.81-.15,11.81-11.74,11.82-9.48,0-18.97.28-28.43-.04-4.86-.16-6.4,1.39-6.38,6.28.16,44.29.07,88.58.14,132.87.02,9.33.19,9.33-8.93,9.56q-10.87.27-10.87-10.56c0-21.22,0-42.44,0-63.65h.03Z"/>
        <path class="cls-1" d="M969.38,202.89c0-22.87-.13-45.73.1-68.6.05-5.11-1.42-6.64-6.59-6.46-11.94.42-23.9.06-35.85.27-3.56.06-4.52-1.17-4.64-4.59-.5-14.07-.6-14.08,13.1-14.08,31.32-.01,62.64.06,93.96-.11,4.18-.02,5.67.92,5.62,5.38-.14,13.32.05,13.32-13.44,13.33-9.07,0-18.16.42-27.19-.1-5.58-.32-5.94,2.49-5.93,6.62.07,28.63.07,57.27.09,85.9,0,16.89-.14,33.79.1,50.67.06,4.38-1.37,5.43-5.56,5.44-13.77.05-13.8.22-13.81-13.74-.02-19.98,0-39.97,0-59.95h.05Z"/>
        <path class="cls-1" d="M284.6,106.95c-.02-21.96,18.44-40.4,40.47-40.41,22.28-.02,41.24,18.8,41.19,40.64-.05,24.08-20.69,41.31-40.77,41.35-21.3.04-41.83-18.07-40.89-41.57ZM349.66,107.38c.35-13.83-9.65-24.41-23.54-24.92-13.47-.49-25.06,10.08-25.4,23.18-.37,13.94,10.53,25.78,24.1,26.17,13.79.4,24.49-10.12,24.85-24.43Z"/>
        <path class="cls-1" d="M26.5,106.7c-.04-21.51,18.94-40.43,40.35-40.23,23.44.22,40.92,18.24,41.32,41.81.37,21.96-20.62,39.88-40.64,40.23-22.15.38-40.98-19.24-41.02-41.8ZM91.95,106.59c-.02-13.27-10.7-24.09-23.84-24.14-14.23-.05-25.43,10.8-25.44,24.66,0,12.89,11.57,24.59,24.41,24.67,14.16.09,24.89-10.79,24.87-25.19Z"/>
      </g>
    </g>
  </g>
</svg>